<svg width="40" height="40" viewBox="0 0 40 40" fill="none" xmlns="http://www.w3.org/2000/svg">
<path d="M11.6787 20.0004C11.6787 19.6689 11.8104 19.3509 12.0448 19.1165C12.2792 18.8821 12.5972 18.7504 12.9287 18.7504H18.7504V12.9287C18.7504 12.5972 18.8821 12.2792 19.1165 12.0448C19.3509 11.8104 19.6689 11.6787 20.0004 11.6787C20.3319 11.6787 20.6498 11.8104 20.8843 12.0448C21.1187 12.2792 21.2504 12.5972 21.2504 12.9287V18.7504H27.072C27.4036 18.7504 27.7215 18.8821 27.9559 19.1165C28.1903 19.3509 28.322 19.6689 28.322 20.0004C28.322 20.3319 28.1903 20.6498 27.9559 20.8843C27.7215 21.1187 27.4036 21.2504 27.072 21.2504H21.2504V27.072C21.2504 27.4036 21.1187 27.7215 20.8843 27.9559C20.6498 28.1903 20.3319 28.322 20.0004 28.322C19.6689 28.322 19.3509 28.1903 19.1165 27.9559C18.8821 27.7215 18.7504 27.4036 18.7504 27.072V21.2504H12.9287C12.5972 21.2504 12.2792 21.1187 12.0448 20.8843C11.8104 20.6498 11.6787 20.3319 11.6787 20.0004Z" fill="white"/>
<path fill-rule="evenodd" clip-rule="evenodd" d="M12.1946 6.28189C17.382 5.70682 22.6171 5.70682 27.8046 6.28189C30.8496 6.62189 33.3079 9.02022 33.6646 12.0819C34.2812 17.3436 34.2812 22.6586 33.6646 27.9202C33.3062 30.9819 30.8479 33.3786 27.8046 33.7202C22.6171 34.2953 17.382 34.2953 12.1946 33.7202C9.14957 33.3786 6.69124 30.9819 6.33457 27.9202C5.7192 22.6587 5.7192 17.3434 6.33457 12.0819C6.69124 9.02022 9.15124 6.62189 12.1946 6.28189ZM27.5279 8.76522C22.5243 8.21061 17.4748 8.21061 12.4712 8.76522C11.545 8.86798 10.6804 9.28001 10.0172 9.93475C9.354 10.5895 8.93089 11.4487 8.81624 12.3736C8.22349 17.4418 8.22349 22.5619 8.81624 27.6302C8.93124 28.5548 9.3545 29.4136 10.0177 30.068C10.6809 30.7224 11.5452 31.1342 12.4712 31.2369C17.4329 31.7902 22.5662 31.7902 27.5279 31.2369C28.4536 31.1339 29.3176 30.7219 29.9805 30.0675C30.6433 29.4132 31.0663 28.5545 31.1812 27.6302C31.774 22.5619 31.774 17.4418 31.1812 12.3736C31.066 11.4495 30.6428 10.5913 29.98 9.93726C29.3172 9.28322 28.4534 8.87152 27.5279 8.76856" fill="white"/>
</svg>
