<svg width="37" height="37" viewBox="0 0 37 37" fill="none" xmlns="http://www.w3.org/2000/svg">
<g clip-path="url(#clip0_583_1379)">
<path d="M36.1448 27.8806C35.5788 27.4829 29.3858 23.365 28.6268 22.9013C28.2961 22.699 27.8926 22.6001 27.4538 22.6001C26.8878 22.6001 26.2611 22.7649 25.6495 23.0869C25.0534 23.4008 23.2479 24.4281 22.3645 24.9328C21.5864 24.3865 19.7584 22.9863 16.8781 20.1032C14.0159 17.242 12.6029 15.399 12.0531 14.6168C12.5567 13.734 13.5829 11.9285 13.895 11.3342C14.4865 10.2138 14.5536 9.09511 14.0737 8.34066C13.6234 7.62956 9.5221 1.41009 9.09892 0.825031C8.70059 0.272922 7.98545 -0.0253906 7.20964 -0.0253906C6.59741 -0.0253906 5.94817 0.159609 5.38508 0.551578C5.33073 0.590312 -0.110615 4.53544 -0.038349 6.77914C0.162296 13.0819 6.28692 20.4888 11.3894 25.5931C16.4919 30.6973 23.8995 36.8237 30.227 37.0254H30.2791C32.4944 37.0254 36.3887 31.6529 36.4263 31.5997C37.4479 30.14 37.0755 28.5328 36.1448 27.8806ZM34.5474 30.2528C33.0807 32.2843 30.9983 34.4061 30.1831 34.7096C25.846 34.5061 19.7601 30.6945 13.0244 23.9577C6.28923 17.2202 2.47823 11.1412 2.27704 6.81856C2.56957 6.00109 4.69126 3.90539 6.70429 2.44967C6.85344 2.34676 7.03729 2.28722 7.20899 2.28722C7.24711 2.28722 7.27891 2.29069 7.3038 2.29531C7.95419 3.24055 11.4455 8.5258 12.0791 9.51378C12.0814 9.61784 12.0462 9.88197 11.8479 10.2589C11.6368 10.6607 10.9795 11.832 10.0447 13.4704L9.31741 14.7452L10.1609 15.9465C10.7899 16.8397 12.2861 18.7817 15.242 21.7382C18.2107 24.708 20.1457 26.1996 21.0354 26.8251L22.2368 27.6686L23.5115 26.9402C24.747 26.2342 26.2397 25.3884 26.7254 25.1335C27.115 24.9283 27.3815 24.9121 27.4538 24.9121C27.4654 24.9121 27.4752 24.9121 27.4833 24.9133C28.3684 25.4688 33.7681 29.0538 34.7214 29.7077C34.737 29.8002 34.7225 30.0013 34.5474 30.2528ZM23.2629 13.6046C23.4121 13.7555 23.622 13.8475 23.855 13.8411L24.2782 13.8313C24.2863 13.8313 24.292 13.8278 24.3013 13.8273L32.5939 13.8637C33.0605 13.8527 33.4472 13.4665 33.4582 12.9988L33.4588 12.4056C33.3883 11.8552 32.9552 11.5326 32.4881 11.543L27.0138 11.5286L36.4789 2.07624C36.9304 1.62472 36.9304 0.892202 36.4789 0.440686C36.0274 -0.010251 35.2955 -0.010251 34.8439 0.440686L25.3529 9.91905L25.3847 4.32449C25.3951 3.85741 25.0245 3.45041 24.5574 3.46139L23.9642 3.46193C23.496 3.47349 23.1092 3.75161 23.0993 4.21873L23.0756 12.5657C23.0756 12.5738 23.1074 12.5795 23.1074 12.5876L23.0612 13.0108C23.0566 13.2455 23.1114 13.4542 23.2629 13.6046Z" fill="white"/>
</g>
<defs>
<clipPath id="clip0_583_1379">
<rect width="37" height="37" fill="white"/>
</clipPath>
</defs>
</svg>
