<svg width="58" height="58" viewBox="0 0 58 58" fill="none" xmlns="http://www.w3.org/2000/svg">
<path d="M36.7682 28.9997C36.4989 28.9997 36.2089 28.9583 35.9396 28.8754C35.4245 28.7015 34.9772 28.3697 34.6611 27.9273C34.3451 27.4848 34.1764 26.9541 34.1789 26.4104V22.7647C31.2789 22.4954 29.0003 20.0511 29.0003 17.089V9.83901C29.0003 6.69044 31.5482 4.14258 34.6967 4.14258H48.161C51.3096 4.14258 53.8574 6.69044 53.8574 9.83901V17.089C53.8574 20.2376 51.3096 22.7854 48.161 22.7854H42.7339L38.8396 27.964C38.3424 28.6269 37.576 28.9997 36.7682 28.9997ZM34.6967 7.24972C33.2674 7.24972 32.1074 8.40972 32.1074 9.83901V17.089C32.1074 18.5183 33.2674 19.6783 34.6967 19.6783H37.286V24.8569L41.1803 19.6783H48.1817C49.611 19.6783 50.771 18.5183 50.771 17.089V9.83901C50.771 8.40972 49.611 7.24972 48.1817 7.24972H34.6967ZM19.6789 34.1783C17.3457 34.1728 15.1097 33.2435 13.4598 31.5937C11.81 29.9439 10.8808 27.7079 10.8753 25.3747C10.8808 23.0415 11.81 20.8055 13.4598 19.1557C15.1097 17.5059 17.3457 16.5766 19.6789 16.5711C22.012 16.5766 24.2481 17.5059 25.8979 19.1557C27.5477 20.8055 28.477 23.0415 28.4824 25.3747C28.477 27.7079 27.5477 29.9439 25.8979 31.5937C24.2481 33.2435 22.012 34.1728 19.6789 34.1783ZM19.6789 19.6783C16.5303 19.6783 13.9824 22.2261 13.9824 25.3747C13.9824 28.5233 16.5303 31.0711 19.6789 31.0711C22.8274 31.0711 25.3753 28.5233 25.3753 25.3747C25.3753 22.2261 22.8274 19.6783 19.6789 19.6783ZM7.19022 49.5483C9.9038 52.4069 14.1088 53.8569 19.6809 53.8569C25.2531 53.8569 29.4581 52.4069 32.1717 49.5483C35.3244 46.2133 35.2229 42.1885 35.2167 41.9171V41.9047C35.2167 39.3569 33.1452 37.2854 30.5974 37.2854H8.76451C6.21665 37.2854 4.14522 39.3569 4.14522 41.8219V41.8488C4.13694 42.2424 4.05822 46.234 7.19022 49.5483ZM7.25237 41.9047C7.25237 41.0761 7.93594 40.3926 8.76451 40.3926H30.5974C31.4259 40.3926 32.1095 41.0761 32.1095 41.9876V41.9917C32.0652 44.007 31.2841 45.9363 29.9138 47.4147C27.8217 49.6311 24.3417 50.7497 19.6809 50.7497C15.0202 50.7497 11.6024 49.6519 9.48951 47.4562C8.06376 45.9675 7.26309 43.9888 7.25237 41.9275V41.9047Z" fill="white"/>
</svg>
