<svg width="48" height="48" viewBox="0 0 48 48" fill="none" xmlns="http://www.w3.org/2000/svg">
<path d="M4 20.07C4 14.507 8.508 10 14.07 10H21.93C27.493 10 32 14.508 32 20.07C32 25.63 27.492 30.139 21.93 30.139H16V35C16 35 4 32.57 4 20.07Z" fill="white"/>
<path d="M24.4766 31.867C25.9753 33.3095 27.9754 34.1139 30.0556 34.111H32.9996V38C32.9996 38 43.9996 36.056 43.9996 26.056C43.9996 23.9196 43.1509 21.8707 41.6404 20.3599C40.1298 18.8491 38.081 18.0003 35.9446 18H33.7346C33.9076 18.656 33.9996 19.345 33.9996 20.056C33.9996 25.85 29.9196 30.692 24.4766 31.867Z" fill="white"/>
</svg>
