<svg width="73" height="73" viewBox="0 0 73 73" fill="none" xmlns="http://www.w3.org/2000/svg">
<path d="M1 71.5833L10.625 61.9583M10.625 61.9583C23.4583 75.0708 33.0833 68.375 39.5 61.9583L42.7083 58.75L13.8333 29.875L10.625 33.0833C4.20833 39.5 -2.20833 48.8459 10.625 61.9583ZM61.9583 10.625L71.5833 1M61.9583 10.625C74.9617 23.4583 68.375 33.0833 61.9583 39.5L58.75 42.7083L29.875 13.8333L33.0833 10.625C39.5 4.20833 48.955 -2.20833 61.9583 10.625ZM26.6667 33.0833L36.2917 23.4583M39.5 45.9167L49.125 36.2917" stroke="white" stroke-width="2"/>
<path d="M18.013 56.8L22.08 53.167L21.844 52.502L18.84 52.229L20.8 49.556L20.438 49.15L16.39 52.788L16.607 53.473L19.611 53.746L17.665 56.413L18.013 56.8ZM19.233 60C18.3503 60 17.519 59.8477 16.739 59.543C15.959 59.239 15.2567 58.8203 14.632 58.287L12.713 60.213L12 59.5L13.926 57.58C13.3927 56.956 12.974 56.254 12.67 55.474C12.3653 54.694 12.213 53.863 12.213 52.981C12.213 51.0323 12.895 49.3817 14.259 48.029C15.623 46.6763 17.2797 46 19.229 46H26.213V52.983C26.213 54.933 25.5367 56.5897 24.184 57.953C22.8313 59.3177 21.181 60 19.233 60Z" fill="white"/>
</svg>
