<svg width="20" height="20" viewBox="0 0 20 20" fill="none" xmlns="http://www.w3.org/2000/svg">
<path fill-rule="evenodd" clip-rule="evenodd" d="M4.47495 4.47459C3.95861 4.98406 3.54815 5.59063 3.26719 6.25938C2.98624 6.92813 2.84035 7.64586 2.83792 8.37122C2.83549 9.09659 2.97657 9.81527 3.25303 10.4859C3.5295 11.1565 3.93589 11.7658 4.4488 12.2787C4.96172 12.7917 5.57103 13.198 6.24165 13.4745C6.91227 13.751 7.63095 13.892 8.35632 13.8896C9.08168 13.8872 9.79941 13.7413 10.4682 13.4603C11.1369 13.1794 11.7435 12.7689 12.2529 12.2526C13.273 11.2188 13.8427 9.82352 13.8379 8.37122C13.833 6.91892 13.2539 5.5275 12.227 4.50056C11.2 3.47363 9.80862 2.89454 8.35632 2.88968C6.90402 2.88481 5.50874 3.45456 4.47495 4.47459ZM10.8389 10.8386C10.5139 11.1636 10.1281 11.4214 9.70341 11.5973C9.27875 11.7732 8.8236 11.8638 8.36395 11.8638C7.9043 11.8638 7.44915 11.7732 7.02449 11.5973C6.59983 11.4214 6.21397 11.1636 5.88895 10.8386C5.56393 10.5136 5.30611 10.1277 5.1302 9.70305C4.9543 9.27839 4.86377 8.82324 4.86377 8.36359C4.86377 7.90394 4.9543 7.44879 5.1302 7.02413C5.30611 6.59947 5.56393 6.21361 5.88895 5.88859C6.54536 5.23218 7.43564 4.86341 8.36395 4.86341C9.29225 4.86341 10.1825 5.23218 10.8389 5.88859C11.4954 6.545 11.8641 7.43529 11.8641 8.36359C11.8641 9.2919 11.4954 10.1822 10.8389 10.8386Z" fill="white"/>
<path d="M11.1924 13.3134C11.0531 13.1741 10.9426 13.0087 10.8671 12.8266C10.7917 12.6446 10.7529 12.4495 10.7529 12.2524C10.7529 12.0554 10.7917 11.8603 10.8671 11.6782C10.9426 11.4962 11.0531 11.3308 11.1924 11.1914C11.3317 11.0521 11.4972 10.9416 11.6792 10.8662C11.8612 10.7908 12.0564 10.752 12.2534 10.752C12.4505 10.752 12.6456 10.7908 12.8276 10.8662C13.0097 10.9416 13.1751 11.0521 13.3144 11.1914L16.8494 14.7274C16.9927 14.8658 17.1069 15.0313 17.1856 15.2143C17.2642 15.3973 17.3056 15.5942 17.3073 15.7933C17.309 15.9925 17.2711 16.19 17.1956 16.3744C17.1202 16.5587 17.0088 16.7262 16.868 16.867C16.7272 17.0079 16.5597 17.1192 16.3753 17.1947C16.191 17.2701 15.9935 17.308 15.7943 17.3063C15.5951 17.3046 15.3983 17.2632 15.2153 17.1846C15.0323 17.106 14.8668 16.9917 14.7284 16.8484L11.1924 13.3134Z" fill="white"/>
</svg>
