<svg width="47" height="47" viewBox="0 0 47 47" fill="none" xmlns="http://www.w3.org/2000/svg">
<path d="M7.83268 39.1663C6.7556 39.1663 5.83388 38.7832 5.06752 38.0168C4.30115 37.2504 3.91732 36.3281 3.91602 35.2497V11.7497C3.91602 10.6726 4.29985 9.75087 5.06752 8.98451C5.83518 8.21815 6.7569 7.83431 7.83268 7.83301H39.166C40.2431 7.83301 41.1655 8.21684 41.9331 8.98451C42.7008 9.75217 43.084 10.6739 43.0827 11.7497V35.2497C43.0827 36.3268 42.6995 37.2491 41.9331 38.0168C41.1668 38.7845 40.2444 39.1676 39.166 39.1663H7.83268ZM23.4993 25.458L39.166 15.6663V11.7497L23.4993 21.5413L7.83268 11.7497V15.6663L23.4993 25.458Z" fill="white"/>
</svg>
