<svg width="21" height="21" viewBox="0 0 21 21" fill="none" xmlns="http://www.w3.org/2000/svg">
<g clip-path="url(#clip0_583_1345)">
<path d="M12 0.75H2.25C1.85218 0.75 1.47064 0.908035 1.18934 1.18934C0.908035 1.47064 0.75 1.85218 0.75 2.25V18.75C0.75 19.1478 0.908035 19.5294 1.18934 19.8107C1.47064 20.092 1.85218 20.25 2.25 20.25H15.75C16.1478 20.25 16.5294 20.092 16.8107 19.8107C17.092 19.5294 17.25 19.1478 17.25 18.75V12M0.75 15.75H17.25M5.25 4.5H8.25M5.25 8.25H6.75" stroke="white" stroke-linecap="round" stroke-linejoin="round"/>
<path d="M13.4912 11.2587L8.99121 12.0687L9.74121 7.5087L16.0862 1.1937C16.2257 1.0531 16.3916 0.941513 16.5743 0.86536C16.7571 0.789207 16.9532 0.75 17.1512 0.75C17.3492 0.75 17.5453 0.789207 17.7281 0.86536C17.9109 0.941513 18.0768 1.0531 18.2162 1.1937L19.8062 2.7837C19.9472 2.92294 20.0591 3.08877 20.1355 3.27159C20.2118 3.45441 20.2512 3.65057 20.2512 3.8487C20.2512 4.04683 20.2118 4.24299 20.1355 4.42581C20.0591 4.60862 19.9472 4.77446 19.8062 4.9137L13.4912 11.2587Z" stroke="white" stroke-linecap="round" stroke-linejoin="round"/>
</g>
<defs>
<clipPath id="clip0_583_1345">
<rect width="21" height="21" fill="white"/>
</clipPath>
</defs>
</svg>
