<svg width="128" height="128" viewBox="0 0 128 128" fill="none" xmlns="http://www.w3.org/2000/svg">
<path d="M64.1706 64.6614C61.6693 64.7876 59.5768 63.1058 57.5448 61.6836L53.8311 113.707H73.0879L69.1946 63.104C67.7157 64.1186 65.964 64.6609 64.1706 64.6596" fill="#D0CFCE"/>
<path d="M57.5415 43.4455C57.5496 43.5582 57.5798 43.6681 57.6304 43.7691C57.839 44.0959 58.1668 44.3287 58.5441 44.418C59.6319 43.4857 60.937 42.8425 62.339 42.548C63.7409 42.2534 65.1945 42.3169 66.5655 42.7326C67.4034 41.8056 67.9066 40.6245 67.9948 39.378C68.004 38.1559 67.8136 36.9405 67.4313 35.7797C66.0177 30.4002 64.3121 25.1017 62.3219 19.9077C61.7571 18.324 61.0006 16.8154 60.0695 15.4153C59.5525 14.5751 58.7641 13.9367 57.8348 13.6055C57.3676 13.4588 56.8626 13.4906 56.4176 13.6949C55.9726 13.8992 55.6192 14.2614 55.4259 14.7113C55.3411 15.0724 55.3242 15.4462 55.3761 15.8135L57.5415 43.4455Z" fill="#92D3F5"/>
<path d="M63.9044 53.8654C65.2328 53.8654 66.3097 52.7884 66.3097 51.46C66.3097 50.1316 65.2328 49.0547 63.9044 49.0547C62.5759 49.0547 61.499 50.1316 61.499 51.46C61.499 52.7884 62.5759 53.8654 63.9044 53.8654Z" fill="#D0CFCE"/>
<path d="M60.4894 62.4779C60.5831 62.4148 60.6634 62.3339 60.7258 62.2397C60.9045 61.8953 60.9421 61.4949 60.8307 61.1232C59.4793 60.6473 58.2697 59.8385 57.3136 58.7715C56.3575 57.7044 55.6858 56.4136 55.3605 55.0184C54.1386 54.7567 52.8643 54.9119 51.7409 55.4592C50.6776 56.0619 49.7198 56.8341 48.9054 57.7455C44.9539 61.6595 41.2186 65.7859 37.716 70.1064C36.6269 71.3869 35.6986 72.7959 34.9516 74.3019C34.4824 75.17 34.3237 76.1723 34.5018 77.1428C34.7222 78.133 35.6574 78.7961 36.6636 78.677C37.0191 78.5704 37.3516 78.3979 37.6449 78.1686L60.4894 62.4779ZM75.4991 50.4086C75.3974 50.359 75.2868 50.33 75.1738 50.3232C74.7864 50.3409 74.4211 50.5086 74.1551 50.7908C74.4182 52.1985 74.3224 53.6498 73.8765 55.0108C73.4306 56.3717 72.6491 57.5983 71.604 58.5775C71.988 59.7686 72.7596 60.7944 73.7942 61.493C74.8482 62.1131 75.9963 62.5568 77.1934 62.8068C82.5585 64.2718 87.9994 65.4433 93.492 66.3161C95.1454 66.6184 96.8307 66.7197 98.5089 66.613C99.495 66.5851 100.442 66.2213 101.193 65.5819C101.94 64.8957 102.047 63.7561 101.44 62.9437C101.17 62.6892 100.855 62.4872 100.511 62.3481C92.1729 58.3659 83.8369 54.3872 75.4991 50.4086Z" fill="#92D3F5"/>
<path d="M58.6956 68.9726L55.2538 113.707H73.0885L69.1951 63.1042M57.5418 43.4455C57.5499 43.5582 57.5801 43.6681 57.6307 43.7691C57.8393 44.0959 58.1671 44.3287 58.5445 44.418C59.6322 43.4857 60.9373 42.8425 62.3393 42.548C63.7413 42.2534 65.1949 42.3169 66.5658 42.7326C67.4038 41.8056 67.907 40.6245 67.9951 39.378C68.0043 38.1559 67.814 36.9405 67.4316 35.7797C66.018 30.4002 64.3124 25.1017 62.3222 19.9077C61.7574 18.324 61.001 16.8154 60.0698 15.4153C59.5528 14.5751 58.7644 13.9367 57.8351 13.6055C57.368 13.4588 56.8629 13.4906 56.4179 13.6949C55.9729 13.8992 55.6195 14.2614 55.4262 14.7113C55.3414 15.0724 55.3245 15.4462 55.3765 15.8135L57.5418 43.4455ZM60.4894 62.4784C60.5831 62.4153 60.6634 62.3344 60.7258 62.2402C60.9045 61.8958 60.9421 61.4954 60.8307 61.1237C59.4793 60.6478 58.2697 59.839 57.3136 58.772C56.3575 57.7049 55.6858 56.4142 55.3605 55.0189C54.1386 54.7572 52.8643 54.9124 51.7409 55.4597C50.6776 56.0624 49.7198 56.8346 48.9054 57.746C44.9539 61.66 41.2186 65.7864 37.716 70.1069C36.6269 71.3874 35.6986 72.7964 34.9516 74.3024C34.4824 75.1705 34.3237 76.1728 34.5018 77.1433C34.7222 78.1335 35.6574 78.7966 36.6636 78.6775C37.0191 78.5709 37.3516 78.3984 37.6449 78.1691L60.4894 62.4784ZM75.4991 50.4091C75.3974 50.3595 75.2868 50.3305 75.1738 50.3237C74.7864 50.3414 74.4211 50.5091 74.1551 50.7913C74.4182 52.199 74.3224 53.6503 73.8765 55.0113C73.4306 56.3722 72.6491 57.5988 71.604 58.578C71.988 59.7691 72.7596 60.7949 73.7942 61.4935C74.8482 62.1136 75.9963 62.5574 77.1934 62.8073C82.5585 64.2723 87.9994 65.4438 93.492 66.3166C95.1454 66.6189 96.8307 66.7202 98.5089 66.6135C99.4951 66.5856 100.442 66.2218 101.193 65.5824C101.94 64.8962 102.047 63.7566 101.44 62.9442C101.17 62.6897 100.855 62.4877 100.511 62.3486C92.1729 58.3664 83.8369 54.3877 75.4991 50.4091Z" stroke="black" stroke-width="2" stroke-linecap="round" stroke-linejoin="round"/>
<path d="M64.5285 55.1118C66.2006 55.1118 67.5561 53.7563 67.5561 52.0842C67.5561 50.4121 66.2006 49.0566 64.5285 49.0566C62.8565 49.0566 61.501 50.4121 61.501 52.0842C61.501 53.7563 62.8565 55.1118 64.5285 55.1118Z" stroke="black" stroke-width="2" stroke-linecap="round" stroke-linejoin="round"/>
</svg>
