<svg width="137" height="118" viewBox="0 0 137 118" fill="none" xmlns="http://www.w3.org/2000/svg">
<path d="M115.25 98.0625C113.808 98.0625 112.425 97.4896 111.405 96.4699C110.385 95.4502 109.812 94.0671 109.812 92.625C109.812 91.1829 110.385 89.7998 111.405 88.7801C112.425 87.7604 113.808 87.1875 115.25 87.1875C116.692 87.1875 118.075 87.7604 119.095 88.7801C120.115 89.7998 120.688 91.1829 120.688 92.625C120.688 94.0671 120.115 95.4502 119.095 96.4699C118.075 97.4896 116.692 98.0625 115.25 98.0625ZM120.688 65.4375L127.792 74.5H111.625V65.4375M71.75 98.0625C70.3079 98.0625 68.9248 97.4896 67.9051 96.4699C66.8854 95.4502 66.3125 94.0671 66.3125 92.625C66.3125 91.1829 66.8854 89.7998 67.9051 88.7801C68.9248 87.7604 70.3079 87.1875 71.75 87.1875C73.1921 87.1875 74.5752 87.7604 75.5949 88.7801C76.6146 89.7998 77.1875 91.1829 77.1875 92.625C77.1875 94.0671 76.6146 95.4502 75.5949 96.4699C74.5752 97.4896 73.1921 98.0625 71.75 98.0625ZM122.5 60H111.625V45.5H60.875C56.8512 45.5 53.625 48.7262 53.625 52.75V92.625H60.875C60.875 95.5092 62.0208 98.2753 64.0602 100.315C66.0997 102.354 68.8658 103.5 71.75 103.5C74.6342 103.5 77.4003 102.354 79.4398 100.315C81.4792 98.2753 82.625 95.5092 82.625 92.625H104.375C104.375 95.5092 105.521 98.2753 107.56 100.315C109.6 102.354 112.366 103.5 115.25 103.5C118.134 103.5 120.9 102.354 122.94 100.315C124.979 98.2753 126.125 95.5092 126.125 92.625H133.375V74.5L122.5 60Z" fill="white"/>
<path d="M41.0625 66.1562V63.875L50.1875 63.875V59.3125L41.0625 59.3125V54.75L50.1875 54.75V50.1875L41.0625 50.1875V47.9063C41.0625 47.3012 40.8222 46.721 40.3943 46.2932C39.9665 45.8653 39.3863 45.625 38.7813 45.625H29.6563C27.0281 45.6284 24.4814 46.5379 22.4456 48.2001C20.4098 49.8623 19.0094 52.1756 18.4804 54.75H11.4063C10.8012 54.75 10.221 54.5097 9.79316 54.0818C9.36535 53.654 9.125 53.0738 9.125 52.4688L9.125 11.4063C9.125 10.8012 9.36535 10.221 9.79316 9.79316C10.221 9.36535 10.8012 9.125 11.4062 9.125C12.0113 9.125 12.5915 9.36535 13.0193 9.79316C13.4472 10.221 13.6875 10.8012 13.6875 11.4063V22.8125C13.6875 24.6276 14.4085 26.3683 15.692 27.6518C16.9754 28.9352 18.7162 29.6563 20.5312 29.6563C22.3463 29.6563 24.0871 28.9352 25.3705 27.6518C26.654 26.3683 27.375 24.6276 27.375 22.8125V11.4063C27.375 10.8012 27.6153 10.221 28.0432 9.79316C28.471 9.36535 29.0512 9.125 29.6562 9.125C30.2613 9.125 30.8415 9.36535 31.2693 9.79316C31.6972 10.221 31.9375 10.8012 31.9375 11.4063V22.8125C31.9393 24.627 32.6609 26.3667 33.944 27.6498C35.227 28.9328 36.9667 29.6544 38.7812 29.6563H47.9062V31.9375C47.9093 34.3567 48.8716 36.6759 50.5822 38.3865C52.2929 40.0971 54.6121 41.0595 57.0313 41.0625H63.875V34.2188C63.8715 31.8831 62.9679 29.6386 61.3519 27.9522C63.4963 26.7704 65.2846 25.0354 66.5307 22.9278C67.7769 20.8202 68.4353 18.4172 68.4375 15.9688V9.125H61.5938C57.9649 9.12923 54.4859 10.5727 51.9199 13.1386C49.3539 15.7046 47.9105 19.1836 47.9062 22.8125V25.0938H38.7812C38.1762 25.0938 37.596 24.8534 37.1682 24.4256C36.7403 23.9978 36.5 23.4175 36.5 22.8125V11.4063C36.5 9.59117 35.779 7.85044 34.4955 6.56699C33.2121 5.28354 31.4713 4.5625 29.6562 4.5625C27.8412 4.5625 26.1004 5.28354 24.817 6.56699C23.5335 7.85044 22.8125 9.59117 22.8125 11.4063V22.8125C22.8125 23.4175 22.5722 23.9978 22.1443 24.4256C21.7165 24.8534 21.1363 25.0938 20.5312 25.0938C19.9262 25.0938 19.346 24.8534 18.9182 24.4256C18.4903 23.9978 18.25 23.4175 18.25 22.8125V11.4063C18.25 9.59117 17.529 7.85044 16.2455 6.56699C14.9621 5.28354 13.2213 4.5625 11.4062 4.5625C9.59118 4.5625 7.85044 5.28354 6.56699 6.56699C5.28354 7.85044 4.5625 9.59117 4.5625 11.4063L4.5625 52.4688C4.56431 54.2833 5.28593 56.023 6.56899 57.306C7.85205 58.5891 9.59173 59.3107 11.4063 59.3125H18.4804C19.0094 61.8869 20.4098 64.2002 22.4456 65.8624C24.4814 67.5246 27.0281 68.4341 29.6563 68.4375H38.7813C39.3863 68.4375 39.9665 68.1972 40.3943 67.7693C40.8222 67.3415 41.0625 66.7613 41.0625 66.1562ZM54.75 29.6563C55.9597 29.6575 57.1195 30.1385 57.9748 30.9939C58.8302 31.8493 59.3113 33.0091 59.3125 34.2188V36.5H57.0312C55.8216 36.4988 54.6618 36.0177 53.8064 35.1623C52.951 34.307 52.47 33.1472 52.4688 31.9375V29.6563H54.75ZM52.4688 22.8125C52.4718 20.3933 53.4341 18.0741 55.1447 16.3635C56.8553 14.6529 59.1746 13.6905 61.5938 13.6875L63.875 13.6875V15.9688C63.872 18.3879 62.9096 20.7071 61.199 22.4178C59.4884 24.1284 57.1692 25.0907 54.75 25.0938H52.4688V22.8125ZM29.6563 63.875C27.8412 63.875 26.1004 63.154 24.817 61.8705C23.5335 60.5871 22.8125 58.8463 22.8125 57.0313C22.8125 55.2162 23.5335 53.4754 24.817 52.192C26.1004 50.9085 27.8412 50.1875 29.6563 50.1875H36.5V63.875H29.6563Z" fill="white"/>
</svg>
