<svg width="128" height="128" viewBox="0 0 128 128" fill="none" xmlns="http://www.w3.org/2000/svg">
<path d="M28.4443 64H62.2221L90.6666 99.5556H55.111L28.4443 64Z" fill="#92D3F5"/>
<path d="M85.3336 56.8888C93.1883 56.8888 99.5558 50.5213 99.5558 42.6666C99.5558 34.8118 93.1883 28.4443 85.3336 28.4443C77.4788 28.4443 71.1113 34.8118 71.1113 42.6666C71.1113 50.5213 77.4788 56.8888 85.3336 56.8888Z" fill="#FCEA2B"/>
<path d="M30.2221 76.4444V99.5556H47.9999M42.6666 81.7778H76.4443M46.2221 64L74.6666 99.5556M28.4443 64H63.1874L92.4443 99.5556H55.8737L28.4443 64Z" stroke="black" stroke-width="2" stroke-linecap="round" stroke-linejoin="round"/>
<path d="M85.3336 56.8888C93.1883 56.8888 99.5558 50.5213 99.5558 42.6666C99.5558 34.8118 93.1883 28.4443 85.3336 28.4443C77.4788 28.4443 71.1113 34.8118 71.1113 42.6666C71.1113 50.5213 77.4788 56.8888 85.3336 56.8888Z" stroke="black" stroke-width="2" stroke-linecap="round" stroke-linejoin="round"/>
</svg>
