<svg width="106" height="24" viewBox="0 0 106 24" fill="none" xmlns="http://www.w3.org/2000/svg">
<path d="M94 8.9V14.8L96.4 16.65L95.5 13.6L97.75 12H94.95L94 8.9ZM87.825 22L90.15 14.4L84 10H91.6L94 2L96.4 10H104L97.85 14.4L100.175 22L94 17.3L87.825 22Z" fill="white"/>
<path d="M14.43 10L12 2L9.57 10H2L8.18 14.41L5.83 22L12 17.31L18.18 22L15.83 14.41L22 10H14.43Z" fill="white"/>
<path d="M34.43 10L32 2L29.57 10H22L28.18 14.41L25.83 22L32 17.31L38.18 22L35.83 14.41L42 10H34.43Z" fill="white"/>
<path d="M74.43 10L72 2L69.57 10H62L68.18 14.41L65.83 22L72 17.31L78.18 22L75.83 14.41L82 10H74.43Z" fill="white"/>
<path d="M54.43 10L52 2L49.57 10H42L48.18 14.41L45.83 22L52 17.31L58.18 22L55.83 14.41L62 10H54.43Z" fill="white"/>
</svg>
