<svg width="58" height="58" viewBox="0 0 58 58" fill="none" xmlns="http://www.w3.org/2000/svg">
<path d="M34.8 29H39.15V37.178L46.226 41.267L44.051 45.037L34.8 39.701V29ZM5.8 0H46.4C47.9383 0 49.4135 0.611069 50.5012 1.69878C51.5889 2.78649 52.2 4.26174 52.2 5.8V23.49C55.796 27.144 58 32.161 58 37.7C58 43.0839 55.8613 48.2473 52.0543 52.0543C48.2473 55.8613 43.0839 58 37.7 58C32.161 58 27.144 55.796 23.49 52.2H5.8C4.26174 52.2 2.78649 51.5889 1.69878 50.5012C0.611069 49.4135 0 47.9383 0 46.4V5.8C0 4.26174 0.611069 2.78649 1.69878 1.69878C2.78649 0.611069 4.26174 0 5.8 0ZM5.8 37.7V46.4H19.343C18.096 43.761 17.4 40.803 17.4 37.7H5.8ZM5.8 17.4H23.2V8.7H5.8V17.4ZM46.4 17.4V8.7H29V17.4H46.4ZM5.8 31.9H18.241C19.227 28.565 21.054 25.578 23.49 23.2H5.8V31.9ZM37.7 23.635C33.9697 23.635 30.3922 25.1168 27.7545 27.7545C25.1168 30.3922 23.635 33.9697 23.635 37.7C23.635 45.472 29.928 51.765 37.7 51.765C39.547 51.765 41.376 51.4012 43.0824 50.6944C44.7889 49.9875 46.3394 48.9515 47.6455 47.6455C48.9515 46.3394 49.9875 44.7889 50.6944 43.0824C51.4012 41.376 51.765 39.547 51.765 37.7C51.765 29.928 45.472 23.635 37.7 23.635Z" fill="white"/>
</svg>
