<svg width="26" height="26" viewBox="0 0 26 26" fill="none" xmlns="http://www.w3.org/2000/svg">
<g clip-path="url(#clip0_583_1324)">
<path d="M23.2917 4.33301H20.9445V5.77745H23.1112V21.6663H2.88897V5.77745H5.05563V4.33301H2.70841C2.53958 4.33583 2.37296 4.37188 2.21807 4.43911C2.06318 4.50633 1.92304 4.60341 1.80568 4.72481C1.68831 4.8462 1.59601 4.98952 1.53404 5.14659C1.47207 5.30366 1.44165 5.4714 1.44452 5.64023V21.8036C1.44165 21.9724 1.47207 22.1401 1.53404 22.2972C1.59601 22.4543 1.68831 22.5976 1.80568 22.719C1.92304 22.8404 2.06318 22.9375 2.21807 23.0047C2.37296 23.0719 2.53958 23.108 2.70841 23.1108H23.2917C23.4606 23.108 23.6272 23.0719 23.7821 23.0047C23.937 22.9375 24.0771 22.8404 24.1945 22.719C24.3118 22.5976 24.4041 22.4543 24.4661 22.2972C24.5281 22.1401 24.5585 21.9724 24.5556 21.8036V5.64023C24.5585 5.4714 24.5281 5.30366 24.4661 5.14659C24.4041 4.98952 24.3118 4.8462 24.1945 4.72481C24.0771 4.60341 23.937 4.50633 23.7821 4.43911C23.6272 4.37188 23.4606 4.33583 23.2917 4.33301Z" fill="white"/>
<path d="M5.77734 10.1113H7.22179V11.5558H5.77734V10.1113Z" fill="white"/>
<path d="M10.1113 10.1113H11.5558V11.5558H10.1113V10.1113Z" fill="white"/>
<path d="M14.4443 10.1113H15.8888V11.5558H14.4443V10.1113Z" fill="white"/>
<path d="M18.7773 10.1113H20.2218V11.5558H18.7773V10.1113Z" fill="white"/>
<path d="M5.77734 13.7227H7.22179V15.1671H5.77734V13.7227Z" fill="white"/>
<path d="M10.1113 13.7227H11.5558V15.1671H10.1113V13.7227Z" fill="white"/>
<path d="M14.4443 13.7227H15.8888V15.1671H14.4443V13.7227Z" fill="white"/>
<path d="M18.7773 13.7227H20.2218V15.1671H18.7773V13.7227Z" fill="white"/>
<path d="M5.77734 17.333H7.22179V18.7775H5.77734V17.333Z" fill="white"/>
<path d="M10.1113 17.333H11.5558V18.7775H10.1113V17.333Z" fill="white"/>
<path d="M14.4443 17.333H15.8888V18.7775H14.4443V17.333Z" fill="white"/>
<path d="M18.7773 17.333H20.2218V18.7775H18.7773V17.333Z" fill="white"/>
<path d="M7.22222 7.22211C7.41377 7.22211 7.59747 7.14602 7.73291 7.01058C7.86835 6.87514 7.94444 6.69144 7.94444 6.49989V2.16656C7.94444 1.97501 7.86835 1.79131 7.73291 1.65587C7.59747 1.52043 7.41377 1.44434 7.22222 1.44434C7.03068 1.44434 6.84698 1.52043 6.71153 1.65587C6.57609 1.79131 6.5 1.97501 6.5 2.16656V6.49989C6.5 6.69144 6.57609 6.87514 6.71153 7.01058C6.84698 7.14602 7.03068 7.22211 7.22222 7.22211Z" fill="white"/>
<path d="M18.7779 7.22211C18.9694 7.22211 19.1531 7.14602 19.2886 7.01058C19.424 6.87514 19.5001 6.69144 19.5001 6.49989V2.16656C19.5001 1.97501 19.424 1.79131 19.2886 1.65587C19.1531 1.52043 18.9694 1.44434 18.7779 1.44434C18.5863 1.44434 18.4026 1.52043 18.2672 1.65587C18.1318 1.79131 18.0557 1.97501 18.0557 2.16656V6.49989C18.0557 6.69144 18.1318 6.87514 18.2672 7.01058C18.4026 7.14602 18.5863 7.22211 18.7779 7.22211Z" fill="white"/>
<path d="M9.38867 4.33301H16.6109V5.77745H9.38867V4.33301Z" fill="white"/>
</g>
<defs>
<clipPath id="clip0_583_1324">
<rect width="26" height="26" fill="white"/>
</clipPath>
</defs>
</svg>
