<svg width="40" height="40" viewBox="0 0 40 40" fill="none" xmlns="http://www.w3.org/2000/svg">
<path d="M19.9993 9.53125C26.8813 9.53125 32.4602 15.1102 32.4602 21.9922V31.0938C32.4602 31.4253 32.3285 31.7432 32.0941 31.9776C31.8597 32.2121 31.5417 32.3438 31.2102 32.3438H8.78833C8.45681 32.3438 8.13887 32.2121 7.90445 31.9776C7.67003 31.7432 7.53833 31.4253 7.53833 31.0938V21.9922C7.53833 15.1102 13.1172 9.53125 19.9993 9.53125ZM18.9055 2.65625H21.093C21.1759 2.65625 21.2554 2.68917 21.314 2.74778C21.3726 2.80638 21.4055 2.88587 21.4055 2.96875V6.71875C21.4055 6.80163 21.3726 6.88112 21.314 6.93972C21.2554 6.99833 21.1759 7.03125 21.093 7.03125H18.9055C18.8226 7.03125 18.7432 6.99833 18.6845 6.93972C18.6259 6.88112 18.593 6.80163 18.593 6.71875V2.96875C18.593 2.88587 18.6259 2.80638 18.6845 2.74778C18.7432 2.68917 18.8226 2.65625 18.9055 2.65625ZM6.9231 7.48672C6.95212 7.45766 6.98659 7.43461 7.02452 7.41889C7.06246 7.40316 7.10312 7.39507 7.14419 7.39507C7.18526 7.39507 7.22592 7.40316 7.26386 7.41889C7.3018 7.43461 7.33626 7.45766 7.36529 7.48672L10.0168 10.1383C10.0754 10.1969 10.1083 10.2763 10.1083 10.3592C10.1083 10.442 10.0754 10.5215 10.0168 10.5801L8.46997 12.127C8.41137 12.1855 8.33192 12.2184 8.24907 12.2184C8.16623 12.2184 8.08677 12.1855 8.02818 12.127L5.37661 9.47539C5.31805 9.41679 5.28516 9.33734 5.28516 9.25449C5.28516 9.17165 5.31805 9.09219 5.37661 9.03359L6.92349 7.48672H6.9231ZM33.0793 7.48672L34.6262 9.03359C34.6847 9.09218 34.7175 9.17155 34.7175 9.2543C34.7175 9.33705 34.6847 9.41642 34.6262 9.475L31.9747 12.1273C31.9456 12.1564 31.9112 12.1794 31.8732 12.1952C31.8353 12.2109 31.7946 12.219 31.7536 12.219C31.7125 12.219 31.6718 12.2109 31.6339 12.1952C31.596 12.1794 31.5615 12.1564 31.5325 12.1273L29.9856 10.5805C29.9565 10.5514 29.9335 10.517 29.9178 10.479C29.902 10.4411 29.8939 10.4004 29.8939 10.3594C29.8939 10.3183 29.902 10.2776 29.9178 10.2397C29.9335 10.2018 29.9565 10.1673 29.9856 10.1383L32.6376 7.48672C32.6961 7.42816 32.7756 7.39526 32.8585 7.39526C32.9413 7.39526 33.0208 7.42816 33.0793 7.48672ZM7.49927 34.8438H32.4993C32.8308 34.8438 33.1487 34.9754 33.3832 35.2099C33.6176 35.4443 33.7493 35.7622 33.7493 36.0938V37.0312C33.7493 37.1141 33.7163 37.1936 33.6577 37.2522C33.5991 37.3108 33.5197 37.3438 33.4368 37.3438H6.56177C6.47889 37.3438 6.3994 37.3108 6.3408 37.2522C6.28219 37.1936 6.24927 37.1141 6.24927 37.0312V36.0938C6.24927 35.7622 6.38097 35.4443 6.61539 35.2099C6.84981 34.9754 7.16775 34.8438 7.49927 34.8438ZM13.2805 22.4609V32.3438H15.7805V22.4609H13.2805Z" fill="white"/>
</svg>
